<?xml version="1.0" encoding="UTF-8" standalone="no"?>
<!-- translate-xy="150,138" -->

<svg
   xmlns:dc="http://purl.org/dc/elements/1.1/"
   xmlns:cc="http://creativecommons.org/ns#"
   xmlns:rdf="http://www.w3.org/1999/02/22-rdf-syntax-ns#"
   xmlns:svg="http://www.w3.org/2000/svg"
   xmlns="http://www.w3.org/2000/svg"
   xmlns:sodipodi="http://sodipodi.sourceforge.net/DTD/sodipodi-0.dtd"
   xmlns:inkscape="http://www.inkscape.org/namespaces/inkscape"
   width="300"
   height="300"
   viewBox="0 0 300 300"
   version="1.1"
   id="svg8"
   sodipodi:docname="traditional-no-frame.svg"
   inkscape:version="0.92.3 (2405546, 2018-03-11)">
  <metadata
     id="metadata14">
    <rdf:RDF>
      <cc:Work
         rdf:about="">
        <dc:format>image/svg+xml</dc:format>
        <dc:type
           rdf:resource="http://purl.org/dc/dcmitype/StillImage" />
        <dc:title></dc:title>
      </cc:Work>
    </rdf:RDF>
  </metadata>
  <defs
     id="defs12" />
  <sodipodi:namedview
     pagecolor="#ffffff"
     bordercolor="#666666"
     borderopacity="1"
     objecttolerance="10"
     gridtolerance="10"
     guidetolerance="10"
     inkscape:pageopacity="0"
     inkscape:pageshadow="2"
     inkscape:window-width="1280"
     inkscape:window-height="737"
     id="namedview10"
     showgrid="false"
     inkscape:zoom="1.5733333"
     inkscape:cx="184.76554"
     inkscape:cy="177.89305"
     inkscape:window-x="-8"
     inkscape:window-y="-8"
     inkscape:window-maximized="1"
     inkscape:current-layer="svg8"
     inkscape:showpageshadow="false" />
<g transform="translate(123.4, 281.8) rotate(-165) "> <g
     aria-label="G"
     transform="scale(0.94225693,1.0612817)"
     style="font-style:normal;font-weight:normal;font-size:9.97426224px;line-height:1.25;font-family:sans-serif;letter-spacing:0px;word-spacing:0px;fill:#ffffff;fill-opacity:1;stroke:none;stroke-width:0.24935651"
     id="text826">
    <path
       d="m 17.011825,20.763421 -0.03068,-8.682073 H 9.1580772 v 3.052531 h 3.8655168 l -0.01534,4.249 q -0.214751,0.260769 -0.582896,0.47552 -0.368144,0.199412 -0.828325,0.337466 -0.47552,0.153394 -0.997058,0.23009 -0.521538,0.0767 -1.0430757,0.06136 Q 8.6978966,20.471973 8.0076257,20.211204 7.3326942,19.935096 6.8111563,19.428897 6.4583512,19.076092 6.1822428,18.615912 5.9061345,18.155731 5.7067229,17.618854 5.4152752,16.836547 5.2618817,15.870168 5.1084882,14.888449 5.0931488,13.753337 v -2.975834 q 0,-0.9357006 0.1073755,-1.779365 Q 5.3232391,8.1544736 5.5533294,7.4488634 5.8140984,6.5745204 6.2282609,5.8995889 6.6424234,5.2246574 7.1793007,4.7951555 7.6088026,4.4423504 8.1303406,4.2582782 8.6672179,4.0588666 9.2654526,4.0588666 q 0.9510394,0 1.6259714,0.260769 0.690271,0.2454296 1.150451,0.7516282 0.414163,0.4601806 0.659593,1.1351121 0.260769,0.6595921 0.383483,1.5032565 h 3.896196 Q 16.827753,6.1143398 16.260197,4.8258342 15.707981,3.5373286 14.741601,2.6323068 13.775222,1.7426244 12.379341,1.2671045 10.998799,0.79158458 9.1887559,0.79158458 q -1.2731663,0 -2.392939,0.35280512 Q 5.6913836,1.4971948 4.7710224,2.1721263 3.9426974,2.7857004 3.2831053,3.6140254 2.6235131,4.4423504 2.1326539,5.470087 1.6264552,6.6051991 1.3503469,7.9550621 1.0742386,9.2895857 1.0742386,10.808182 v 2.945155 q 0,1.579953 0.2761083,2.975835 0.2914477,1.380541 0.8590037,2.515653 0.4908593,1.043076 1.2118088,1.886741 0.7209496,0.828325 1.6259714,1.41122 0.9050218,0.567556 1.9941158,0.889682 1.1044333,0.306787 2.3622602,0.306787 1.3958812,0 2.6230292,-0.276108 1.242488,-0.260769 2.254885,-0.736289 0.905022,-0.414162 1.595292,-0.920361 0.690271,-0.521538 1.135112,-1.043076 z"
       style="font-style:normal;font-variant:normal;font-weight:bold;font-stretch:normal;font-size:31.41499329px;font-family:'Roboto Mono';-inkscape-font-specification:'Roboto Mono Bold';fill:#ffffff;fill-opacity:1;stroke-width:0.24935651"
       id="path815" />
  </g>

 </g><g transform="translate(101.2, 275.3) rotate(-155) "> <g
     aria-label="R"
     transform="scale(0.94374805,1.0596048)"
     style="font-style:normal;font-weight:normal;font-size:10.18946171px;line-height:1.25;font-family:sans-serif;letter-spacing:0px;word-spacing:0px;fill:#ffffff;fill-opacity:1;stroke:none;stroke-width:0.25473648"
     id="text826">
    <path
       d="m 8.6500265,14.990609 4.3250045,8.68135 h 4.372016 v -0.203714 l -4.889136,-9.480536 q 0.940219,-0.423098 1.692393,-1.002899 0.767845,-0.579802 1.331976,-1.363317 0.532791,-0.752175 0.830527,-1.7237339 0.297735,-0.971559 0.297735,-2.1625024 0,-1.7080634 -0.595471,-2.9930286 Q 15.435269,3.4572629 14.354018,2.6110663 13.257097,1.7491995 11.752747,1.3104309 10.248398,0.85599196 8.4149719,0.85599196 H 0.95590577 V 23.671959 H 5.0458559 v -8.68135 z M 5.0458559,11.652833 V 4.178097 h 3.369116 q 0.9402184,0 1.6767231,0.2350546 0.736504,0.2350546 1.269295,0.6738232 0.564131,0.4701093 0.846196,1.2066137 0.297736,0.7208341 0.297736,1.6610525 0,0.814856 -0.250725,1.4730089 -0.235054,0.6424821 -0.689493,1.0969211 -0.532791,0.548461 -1.331976,0.846197 -0.7835158,0.282065 -1.7864155,0.282065 z"
       style="font-style:normal;font-variant:normal;font-weight:bold;font-stretch:normal;font-size:32.0927887px;font-family:'Roboto Mono';-inkscape-font-specification:'Roboto Mono Bold';fill:#ffffff;fill-opacity:1;stroke-width:0.25473648"
       id="path815" />
  </g>

 </g><g transform="translate(80, 264.3) rotate(-145) "> <g
     aria-label="I"
     transform="scale(1.0380132,0.96337888)"
     style="font-style:normal;font-weight:normal;font-size:11.20722389px;line-height:1.25;font-family:sans-serif;letter-spacing:0px;word-spacing:0px;fill:#ffffff;fill-opacity:1;stroke:none;stroke-width:0.28018054"
     id="text826">
    <path
       d="M 0.84366954,0.94149479 V 4.6126596 H 5.9623915 V 22.382476 H 0.84366954 v 3.65393 H 15.493858 v -3.65393 H 10.237252 V 4.6126596 h 5.256606 V 0.94149479 Z"
       style="font-style:normal;font-variant:normal;font-weight:bold;font-stretch:normal;font-size:35.29833603px;font-family:'Roboto Mono';-inkscape-font-specification:'Roboto Mono Bold';fill:#ffffff;fill-opacity:1;stroke-width:0.28018054"
       id="path815"
       inkscape:connector-curvature="0"
       sodipodi:nodetypes="ccccccccccccc" />
  </g>

 </g><g transform="translate(61.5, 251) rotate(-135) "> <g
     aria-label="N"
     transform="scale(0.9730088,1.0277399)"
     style="font-style:normal;font-weight:normal;font-size:10.50538445px;line-height:1.25;font-family:sans-serif;letter-spacing:0px;word-spacing:0px;fill:#ffffff;fill-opacity:1;stroke:none;stroke-width:0.26263455"
     id="text826">
    <path
       d="M 16.544306,24.405903 V 0.88253215 H 12.311392 L 12.279079,16.50554 5.2349931,0.88253215 H 0.98592273 V 24.405903 H 5.2349931 L 5.2511493,8.7344265 12.327548,24.405903 Z"
       style="font-style:normal;font-variant:normal;font-weight:bold;font-stretch:normal;font-size:33.08781815px;font-family:'Roboto Mono';-inkscape-font-specification:'Roboto Mono Bold';fill:#ffffff;fill-opacity:1;stroke-width:0.26263455"
       id="path815" />
    <path
       id="path818"
       style="font-style:normal;font-variant:normal;font-weight:bold;font-stretch:normal;font-size:33.08781815px;font-family:'Roboto Mono';-inkscape-font-specification:'Roboto Mono Bold';fill:#ffffff;fill-opacity:1;stroke-width:0.26263455"
       d="M 16.544306,24.405903 V 0.88253215 H 12.311392 L 12.279079,16.50554 5.2349931,0.88253215 H 0.98592273 V 24.405903 H 5.2349931 L 5.2511493,8.7344265 12.327548,24.405903 Z" />
  </g>

 </g><g transform="translate(32.3, 213.9) rotate(-115) "> <g
     aria-label="G"
     transform="scale(0.94225693,1.0612817)"
     style="font-style:normal;font-weight:normal;font-size:9.97426224px;line-height:1.25;font-family:sans-serif;letter-spacing:0px;word-spacing:0px;fill:#ffffff;fill-opacity:1;stroke:none;stroke-width:0.24935651"
     id="text826">
    <path
       d="m 17.011825,20.763421 -0.03068,-8.682073 H 9.1580772 v 3.052531 h 3.8655168 l -0.01534,4.249 q -0.214751,0.260769 -0.582896,0.47552 -0.368144,0.199412 -0.828325,0.337466 -0.47552,0.153394 -0.997058,0.23009 -0.521538,0.0767 -1.0430757,0.06136 Q 8.6978966,20.471973 8.0076257,20.211204 7.3326942,19.935096 6.8111563,19.428897 6.4583512,19.076092 6.1822428,18.615912 5.9061345,18.155731 5.7067229,17.618854 5.4152752,16.836547 5.2618817,15.870168 5.1084882,14.888449 5.0931488,13.753337 v -2.975834 q 0,-0.9357006 0.1073755,-1.779365 Q 5.3232391,8.1544736 5.5533294,7.4488634 5.8140984,6.5745204 6.2282609,5.8995889 6.6424234,5.2246574 7.1793007,4.7951555 7.6088026,4.4423504 8.1303406,4.2582782 8.6672179,4.0588666 9.2654526,4.0588666 q 0.9510394,0 1.6259714,0.260769 0.690271,0.2454296 1.150451,0.7516282 0.414163,0.4601806 0.659593,1.1351121 0.260769,0.6595921 0.383483,1.5032565 h 3.896196 Q 16.827753,6.1143398 16.260197,4.8258342 15.707981,3.5373286 14.741601,2.6323068 13.775222,1.7426244 12.379341,1.2671045 10.998799,0.79158458 9.1887559,0.79158458 q -1.2731663,0 -2.392939,0.35280512 Q 5.6913836,1.4971948 4.7710224,2.1721263 3.9426974,2.7857004 3.2831053,3.6140254 2.6235131,4.4423504 2.1326539,5.470087 1.6264552,6.6051991 1.3503469,7.9550621 1.0742386,9.2895857 1.0742386,10.808182 v 2.945155 q 0,1.579953 0.2761083,2.975835 0.2914477,1.380541 0.8590037,2.515653 0.4908593,1.043076 1.2118088,1.886741 0.7209496,0.828325 1.6259714,1.41122 0.9050218,0.567556 1.9941158,0.889682 1.1044333,0.306787 2.3622602,0.306787 1.3958812,0 2.6230292,-0.276108 1.242488,-0.260769 2.254885,-0.736289 0.905022,-0.414162 1.595292,-0.920361 0.690271,-0.521538 1.135112,-1.043076 z"
       style="font-style:normal;font-variant:normal;font-weight:bold;font-stretch:normal;font-size:31.41499329px;font-family:'Roboto Mono';-inkscape-font-specification:'Roboto Mono Bold';fill:#ffffff;fill-opacity:1;stroke-width:0.24935651"
       id="path815" />
  </g>

 </g><g transform="translate(22.6, 193) rotate(-105) "> <g
     aria-label="R"
     transform="scale(0.94374805,1.0596048)"
     style="font-style:normal;font-weight:normal;font-size:10.18946171px;line-height:1.25;font-family:sans-serif;letter-spacing:0px;word-spacing:0px;fill:#ffffff;fill-opacity:1;stroke:none;stroke-width:0.25473648"
     id="text826">
    <path
       d="m 8.6500265,14.990609 4.3250045,8.68135 h 4.372016 v -0.203714 l -4.889136,-9.480536 q 0.940219,-0.423098 1.692393,-1.002899 0.767845,-0.579802 1.331976,-1.363317 0.532791,-0.752175 0.830527,-1.7237339 0.297735,-0.971559 0.297735,-2.1625024 0,-1.7080634 -0.595471,-2.9930286 Q 15.435269,3.4572629 14.354018,2.6110663 13.257097,1.7491995 11.752747,1.3104309 10.248398,0.85599196 8.4149719,0.85599196 H 0.95590577 V 23.671959 H 5.0458559 v -8.68135 z M 5.0458559,11.652833 V 4.178097 h 3.369116 q 0.9402184,0 1.6767231,0.2350546 0.736504,0.2350546 1.269295,0.6738232 0.564131,0.4701093 0.846196,1.2066137 0.297736,0.7208341 0.297736,1.6610525 0,0.814856 -0.250725,1.4730089 -0.235054,0.6424821 -0.689493,1.0969211 -0.532791,0.548461 -1.331976,0.846197 -0.7835158,0.282065 -1.7864155,0.282065 z"
       style="font-style:normal;font-variant:normal;font-weight:bold;font-stretch:normal;font-size:32.0927887px;font-family:'Roboto Mono';-inkscape-font-specification:'Roboto Mono Bold';fill:#ffffff;fill-opacity:1;stroke-width:0.25473648"
       id="path815" />
  </g>

 </g><g transform="translate(17.4, 170.5) rotate(-95) "> <g
     aria-label="I"
     transform="scale(1.0380132,0.96337888)"
     style="font-style:normal;font-weight:normal;font-size:11.20722389px;line-height:1.25;font-family:sans-serif;letter-spacing:0px;word-spacing:0px;fill:#ffffff;fill-opacity:1;stroke:none;stroke-width:0.28018054"
     id="text826">
    <path
       d="M 0.84366954,0.94149479 V 4.6126596 H 5.9623915 V 22.382476 H 0.84366954 v 3.65393 H 15.493858 v -3.65393 H 10.237252 V 4.6126596 h 5.256606 V 0.94149479 Z"
       style="font-style:normal;font-variant:normal;font-weight:bold;font-stretch:normal;font-size:35.29833603px;font-family:'Roboto Mono';-inkscape-font-specification:'Roboto Mono Bold';fill:#ffffff;fill-opacity:1;stroke-width:0.28018054"
       id="path815"
       inkscape:connector-curvature="0"
       sodipodi:nodetypes="ccccccccccccc" />
  </g>

 </g><g transform="translate(15.7, 147) rotate(-85) "> <g
     aria-label="N"
     transform="scale(0.9730088,1.0277399)"
     style="font-style:normal;font-weight:normal;font-size:10.50538445px;line-height:1.25;font-family:sans-serif;letter-spacing:0px;word-spacing:0px;fill:#ffffff;fill-opacity:1;stroke:none;stroke-width:0.26263455"
     id="text826">
    <path
       d="M 16.544306,24.405903 V 0.88253215 H 12.311392 L 12.279079,16.50554 5.2349931,0.88253215 H 0.98592273 V 24.405903 H 5.2349931 L 5.2511493,8.7344265 12.327548,24.405903 Z"
       style="font-style:normal;font-variant:normal;font-weight:bold;font-stretch:normal;font-size:33.08781815px;font-family:'Roboto Mono';-inkscape-font-specification:'Roboto Mono Bold';fill:#ffffff;fill-opacity:1;stroke-width:0.26263455"
       id="path815" />
    <path
       id="path818"
       style="font-style:normal;font-variant:normal;font-weight:bold;font-stretch:normal;font-size:33.08781815px;font-family:'Roboto Mono';-inkscape-font-specification:'Roboto Mono Bold';fill:#ffffff;fill-opacity:1;stroke-width:0.26263455"
       d="M 16.544306,24.405903 V 0.88253215 H 12.311392 L 12.279079,16.50554 5.2349931,0.88253215 H 0.98592273 V 24.405903 H 5.2349931 L 5.2511493,8.7344265 12.327548,24.405903 Z" />
  </g>

 </g><g transform="translate(24.8, 101.1) rotate(-65) "> <g
     aria-label="G"
     transform="scale(0.94225693,1.0612817)"
     style="font-style:normal;font-weight:normal;font-size:9.97426224px;line-height:1.25;font-family:sans-serif;letter-spacing:0px;word-spacing:0px;fill:#ffffff;fill-opacity:1;stroke:none;stroke-width:0.24935651"
     id="text826">
    <path
       d="m 17.011825,20.763421 -0.03068,-8.682073 H 9.1580772 v 3.052531 h 3.8655168 l -0.01534,4.249 q -0.214751,0.260769 -0.582896,0.47552 -0.368144,0.199412 -0.828325,0.337466 -0.47552,0.153394 -0.997058,0.23009 -0.521538,0.0767 -1.0430757,0.06136 Q 8.6978966,20.471973 8.0076257,20.211204 7.3326942,19.935096 6.8111563,19.428897 6.4583512,19.076092 6.1822428,18.615912 5.9061345,18.155731 5.7067229,17.618854 5.4152752,16.836547 5.2618817,15.870168 5.1084882,14.888449 5.0931488,13.753337 v -2.975834 q 0,-0.9357006 0.1073755,-1.779365 Q 5.3232391,8.1544736 5.5533294,7.4488634 5.8140984,6.5745204 6.2282609,5.8995889 6.6424234,5.2246574 7.1793007,4.7951555 7.6088026,4.4423504 8.1303406,4.2582782 8.6672179,4.0588666 9.2654526,4.0588666 q 0.9510394,0 1.6259714,0.260769 0.690271,0.2454296 1.150451,0.7516282 0.414163,0.4601806 0.659593,1.1351121 0.260769,0.6595921 0.383483,1.5032565 h 3.896196 Q 16.827753,6.1143398 16.260197,4.8258342 15.707981,3.5373286 14.741601,2.6323068 13.775222,1.7426244 12.379341,1.2671045 10.998799,0.79158458 9.1887559,0.79158458 q -1.2731663,0 -2.392939,0.35280512 Q 5.6913836,1.4971948 4.7710224,2.1721263 3.9426974,2.7857004 3.2831053,3.6140254 2.6235131,4.4423504 2.1326539,5.470087 1.6264552,6.6051991 1.3503469,7.9550621 1.0742386,9.2895857 1.0742386,10.808182 v 2.945155 q 0,1.579953 0.2761083,2.975835 0.2914477,1.380541 0.8590037,2.515653 0.4908593,1.043076 1.2118088,1.886741 0.7209496,0.828325 1.6259714,1.41122 0.9050218,0.567556 1.9941158,0.889682 1.1044333,0.306787 2.3622602,0.306787 1.3958812,0 2.6230292,-0.276108 1.242488,-0.260769 2.254885,-0.736289 0.905022,-0.414162 1.595292,-0.920361 0.690271,-0.521538 1.135112,-1.043076 z"
       style="font-style:normal;font-variant:normal;font-weight:bold;font-stretch:normal;font-size:31.41499329px;font-family:'Roboto Mono';-inkscape-font-specification:'Roboto Mono Bold';fill:#ffffff;fill-opacity:1;stroke-width:0.24935651"
       id="path815" />
  </g>

 </g><g transform="translate(35.1, 80.3) rotate(-55) "> <g
     aria-label="R"
     transform="scale(0.94374805,1.0596048)"
     style="font-style:normal;font-weight:normal;font-size:10.18946171px;line-height:1.25;font-family:sans-serif;letter-spacing:0px;word-spacing:0px;fill:#ffffff;fill-opacity:1;stroke:none;stroke-width:0.25473648"
     id="text826">
    <path
       d="m 8.6500265,14.990609 4.3250045,8.68135 h 4.372016 v -0.203714 l -4.889136,-9.480536 q 0.940219,-0.423098 1.692393,-1.002899 0.767845,-0.579802 1.331976,-1.363317 0.532791,-0.752175 0.830527,-1.7237339 0.297735,-0.971559 0.297735,-2.1625024 0,-1.7080634 -0.595471,-2.9930286 Q 15.435269,3.4572629 14.354018,2.6110663 13.257097,1.7491995 11.752747,1.3104309 10.248398,0.85599196 8.4149719,0.85599196 H 0.95590577 V 23.671959 H 5.0458559 v -8.68135 z M 5.0458559,11.652833 V 4.178097 h 3.369116 q 0.9402184,0 1.6767231,0.2350546 0.736504,0.2350546 1.269295,0.6738232 0.564131,0.4701093 0.846196,1.2066137 0.297736,0.7208341 0.297736,1.6610525 0,0.814856 -0.250725,1.4730089 -0.235054,0.6424821 -0.689493,1.0969211 -0.532791,0.548461 -1.331976,0.846197 -0.7835158,0.282065 -1.7864155,0.282065 z"
       style="font-style:normal;font-variant:normal;font-weight:bold;font-stretch:normal;font-size:32.0927887px;font-family:'Roboto Mono';-inkscape-font-specification:'Roboto Mono Bold';fill:#ffffff;fill-opacity:1;stroke-width:0.25473648"
       id="path815" />
  </g>

 </g><g transform="translate(49.3, 61.3) rotate(-45) "> <g
     aria-label="I"
     transform="scale(1.0380132,0.96337888)"
     style="font-style:normal;font-weight:normal;font-size:11.20722389px;line-height:1.25;font-family:sans-serif;letter-spacing:0px;word-spacing:0px;fill:#ffffff;fill-opacity:1;stroke:none;stroke-width:0.28018054"
     id="text826">
    <path
       d="M 0.84366954,0.94149479 V 4.6126596 H 5.9623915 V 22.382476 H 0.84366954 v 3.65393 H 15.493858 v -3.65393 H 10.237252 V 4.6126596 h 5.256606 V 0.94149479 Z"
       style="font-style:normal;font-variant:normal;font-weight:bold;font-stretch:normal;font-size:35.29833603px;font-family:'Roboto Mono';-inkscape-font-specification:'Roboto Mono Bold';fill:#ffffff;fill-opacity:1;stroke-width:0.28018054"
       id="path815"
       inkscape:connector-curvature="0"
       sodipodi:nodetypes="ccccccccccccc" />
  </g>

 </g><g transform="translate(65.9, 45.1) rotate(-35) "> <g
     aria-label="N"
     transform="scale(0.9730088,1.0277399)"
     style="font-style:normal;font-weight:normal;font-size:10.50538445px;line-height:1.25;font-family:sans-serif;letter-spacing:0px;word-spacing:0px;fill:#ffffff;fill-opacity:1;stroke:none;stroke-width:0.26263455"
     id="text826">
    <path
       d="M 16.544306,24.405903 V 0.88253215 H 12.311392 L 12.279079,16.50554 5.2349931,0.88253215 H 0.98592273 V 24.405903 H 5.2349931 L 5.2511493,8.7344265 12.327548,24.405903 Z"
       style="font-style:normal;font-variant:normal;font-weight:bold;font-stretch:normal;font-size:33.08781815px;font-family:'Roboto Mono';-inkscape-font-specification:'Roboto Mono Bold';fill:#ffffff;fill-opacity:1;stroke-width:0.26263455"
       id="path815" />
    <path
       id="path818"
       style="font-style:normal;font-variant:normal;font-weight:bold;font-stretch:normal;font-size:33.08781815px;font-family:'Roboto Mono';-inkscape-font-specification:'Roboto Mono Bold';fill:#ffffff;fill-opacity:1;stroke-width:0.26263455"
       d="M 16.544306,24.405903 V 0.88253215 H 12.311392 L 12.279079,16.50554 5.2349931,0.88253215 H 0.98592273 V 24.405903 H 5.2349931 L 5.2511493,8.7344265 12.327548,24.405903 Z" />
  </g>

 </g><g transform="translate(107, 22.8) rotate(-15) "> <g
     aria-label="G"
     transform="scale(0.94225693,1.0612817)"
     style="font-style:normal;font-weight:normal;font-size:9.97426224px;line-height:1.25;font-family:sans-serif;letter-spacing:0px;word-spacing:0px;fill:#ffffff;fill-opacity:1;stroke:none;stroke-width:0.24935651"
     id="text826">
    <path
       d="m 17.011825,20.763421 -0.03068,-8.682073 H 9.1580772 v 3.052531 h 3.8655168 l -0.01534,4.249 q -0.214751,0.260769 -0.582896,0.47552 -0.368144,0.199412 -0.828325,0.337466 -0.47552,0.153394 -0.997058,0.23009 -0.521538,0.0767 -1.0430757,0.06136 Q 8.6978966,20.471973 8.0076257,20.211204 7.3326942,19.935096 6.8111563,19.428897 6.4583512,19.076092 6.1822428,18.615912 5.9061345,18.155731 5.7067229,17.618854 5.4152752,16.836547 5.2618817,15.870168 5.1084882,14.888449 5.0931488,13.753337 v -2.975834 q 0,-0.9357006 0.1073755,-1.779365 Q 5.3232391,8.1544736 5.5533294,7.4488634 5.8140984,6.5745204 6.2282609,5.8995889 6.6424234,5.2246574 7.1793007,4.7951555 7.6088026,4.4423504 8.1303406,4.2582782 8.6672179,4.0588666 9.2654526,4.0588666 q 0.9510394,0 1.6259714,0.260769 0.690271,0.2454296 1.150451,0.7516282 0.414163,0.4601806 0.659593,1.1351121 0.260769,0.6595921 0.383483,1.5032565 h 3.896196 Q 16.827753,6.1143398 16.260197,4.8258342 15.707981,3.5373286 14.741601,2.6323068 13.775222,1.7426244 12.379341,1.2671045 10.998799,0.79158458 9.1887559,0.79158458 q -1.2731663,0 -2.392939,0.35280512 Q 5.6913836,1.4971948 4.7710224,2.1721263 3.9426974,2.7857004 3.2831053,3.6140254 2.6235131,4.4423504 2.1326539,5.470087 1.6264552,6.6051991 1.3503469,7.9550621 1.0742386,9.2895857 1.0742386,10.808182 v 2.945155 q 0,1.579953 0.2761083,2.975835 0.2914477,1.380541 0.8590037,2.515653 0.4908593,1.043076 1.2118088,1.886741 0.7209496,0.828325 1.6259714,1.41122 0.9050218,0.567556 1.9941158,0.889682 1.1044333,0.306787 2.3622602,0.306787 1.3958812,0 2.6230292,-0.276108 1.242488,-0.260769 2.254885,-0.736289 0.905022,-0.414162 1.595292,-0.920361 0.690271,-0.521538 1.135112,-1.043076 z"
       style="font-style:normal;font-variant:normal;font-weight:bold;font-stretch:normal;font-size:31.41499329px;font-family:'Roboto Mono';-inkscape-font-specification:'Roboto Mono Bold';fill:#ffffff;fill-opacity:1;stroke-width:0.24935651"
       id="path815" />
  </g>

 </g><g transform="translate(130.1, 17.2) rotate(-5) "> <g
     aria-label="R"
     transform="scale(0.94374805,1.0596048)"
     style="font-style:normal;font-weight:normal;font-size:10.18946171px;line-height:1.25;font-family:sans-serif;letter-spacing:0px;word-spacing:0px;fill:#ffffff;fill-opacity:1;stroke:none;stroke-width:0.25473648"
     id="text826">
    <path
       d="m 8.6500265,14.990609 4.3250045,8.68135 h 4.372016 v -0.203714 l -4.889136,-9.480536 q 0.940219,-0.423098 1.692393,-1.002899 0.767845,-0.579802 1.331976,-1.363317 0.532791,-0.752175 0.830527,-1.7237339 0.297735,-0.971559 0.297735,-2.1625024 0,-1.7080634 -0.595471,-2.9930286 Q 15.435269,3.4572629 14.354018,2.6110663 13.257097,1.7491995 11.752747,1.3104309 10.248398,0.85599196 8.4149719,0.85599196 H 0.95590577 V 23.671959 H 5.0458559 v -8.68135 z M 5.0458559,11.652833 V 4.178097 h 3.369116 q 0.9402184,0 1.6767231,0.2350546 0.736504,0.2350546 1.269295,0.6738232 0.564131,0.4701093 0.846196,1.2066137 0.297736,0.7208341 0.297736,1.6610525 0,0.814856 -0.250725,1.4730089 -0.235054,0.6424821 -0.689493,1.0969211 -0.532791,0.548461 -1.331976,0.846197 -0.7835158,0.282065 -1.7864155,0.282065 z"
       style="font-style:normal;font-variant:normal;font-weight:bold;font-stretch:normal;font-size:32.0927887px;font-family:'Roboto Mono';-inkscape-font-specification:'Roboto Mono Bold';fill:#ffffff;fill-opacity:1;stroke-width:0.25473648"
       id="path815" />
  </g>

 </g><g transform="translate(153.7, 15.9) rotate(5) "> <g
     aria-label="I"
     transform="scale(1.0380132,0.96337888)"
     style="font-style:normal;font-weight:normal;font-size:11.20722389px;line-height:1.25;font-family:sans-serif;letter-spacing:0px;word-spacing:0px;fill:#ffffff;fill-opacity:1;stroke:none;stroke-width:0.28018054"
     id="text826">
    <path
       d="M 0.84366954,0.94149479 V 4.6126596 H 5.9623915 V 22.382476 H 0.84366954 v 3.65393 H 15.493858 v -3.65393 H 10.237252 V 4.6126596 h 5.256606 V 0.94149479 Z"
       style="font-style:normal;font-variant:normal;font-weight:bold;font-stretch:normal;font-size:35.29833603px;font-family:'Roboto Mono';-inkscape-font-specification:'Roboto Mono Bold';fill:#ffffff;fill-opacity:1;stroke-width:0.28018054"
       id="path815"
       inkscape:connector-curvature="0"
       sodipodi:nodetypes="ccccccccccccc" />
  </g>

 </g><g transform="translate(176.6, 18.7) rotate(15) "> <g
     aria-label="N"
     transform="scale(0.9730088,1.0277399)"
     style="font-style:normal;font-weight:normal;font-size:10.50538445px;line-height:1.25;font-family:sans-serif;letter-spacing:0px;word-spacing:0px;fill:#ffffff;fill-opacity:1;stroke:none;stroke-width:0.26263455"
     id="text826">
    <path
       d="M 16.544306,24.405903 V 0.88253215 H 12.311392 L 12.279079,16.50554 5.2349931,0.88253215 H 0.98592273 V 24.405903 H 5.2349931 L 5.2511493,8.7344265 12.327548,24.405903 Z"
       style="font-style:normal;font-variant:normal;font-weight:bold;font-stretch:normal;font-size:33.08781815px;font-family:'Roboto Mono';-inkscape-font-specification:'Roboto Mono Bold';fill:#ffffff;fill-opacity:1;stroke-width:0.26263455"
       id="path815" />
    <path
       id="path818"
       style="font-style:normal;font-variant:normal;font-weight:bold;font-stretch:normal;font-size:33.08781815px;font-family:'Roboto Mono';-inkscape-font-specification:'Roboto Mono Bold';fill:#ffffff;fill-opacity:1;stroke-width:0.26263455"
       d="M 16.544306,24.405903 V 0.88253215 H 12.311392 L 12.279079,16.50554 5.2349931,0.88253215 H 0.98592273 V 24.405903 H 5.2349931 L 5.2511493,8.7344265 12.327548,24.405903 Z" />
  </g>

 </g><g transform="translate(219.9, 35.7) rotate(35) "> <g
     aria-label="G"
     transform="scale(0.94225693,1.0612817)"
     style="font-style:normal;font-weight:normal;font-size:9.97426224px;line-height:1.25;font-family:sans-serif;letter-spacing:0px;word-spacing:0px;fill:#ffffff;fill-opacity:1;stroke:none;stroke-width:0.24935651"
     id="text826">
    <path
       d="m 17.011825,20.763421 -0.03068,-8.682073 H 9.1580772 v 3.052531 h 3.8655168 l -0.01534,4.249 q -0.214751,0.260769 -0.582896,0.47552 -0.368144,0.199412 -0.828325,0.337466 -0.47552,0.153394 -0.997058,0.23009 -0.521538,0.0767 -1.0430757,0.06136 Q 8.6978966,20.471973 8.0076257,20.211204 7.3326942,19.935096 6.8111563,19.428897 6.4583512,19.076092 6.1822428,18.615912 5.9061345,18.155731 5.7067229,17.618854 5.4152752,16.836547 5.2618817,15.870168 5.1084882,14.888449 5.0931488,13.753337 v -2.975834 q 0,-0.9357006 0.1073755,-1.779365 Q 5.3232391,8.1544736 5.5533294,7.4488634 5.8140984,6.5745204 6.2282609,5.8995889 6.6424234,5.2246574 7.1793007,4.7951555 7.6088026,4.4423504 8.1303406,4.2582782 8.6672179,4.0588666 9.2654526,4.0588666 q 0.9510394,0 1.6259714,0.260769 0.690271,0.2454296 1.150451,0.7516282 0.414163,0.4601806 0.659593,1.1351121 0.260769,0.6595921 0.383483,1.5032565 h 3.896196 Q 16.827753,6.1143398 16.260197,4.8258342 15.707981,3.5373286 14.741601,2.6323068 13.775222,1.7426244 12.379341,1.2671045 10.998799,0.79158458 9.1887559,0.79158458 q -1.2731663,0 -2.392939,0.35280512 Q 5.6913836,1.4971948 4.7710224,2.1721263 3.9426974,2.7857004 3.2831053,3.6140254 2.6235131,4.4423504 2.1326539,5.470087 1.6264552,6.6051991 1.3503469,7.9550621 1.0742386,9.2895857 1.0742386,10.808182 v 2.945155 q 0,1.579953 0.2761083,2.975835 0.2914477,1.380541 0.8590037,2.515653 0.4908593,1.043076 1.2118088,1.886741 0.7209496,0.828325 1.6259714,1.41122 0.9050218,0.567556 1.9941158,0.889682 1.1044333,0.306787 2.3622602,0.306787 1.3958812,0 2.6230292,-0.276108 1.242488,-0.260769 2.254885,-0.736289 0.905022,-0.414162 1.595292,-0.920361 0.690271,-0.521538 1.135112,-1.043076 z"
       style="font-style:normal;font-variant:normal;font-weight:bold;font-stretch:normal;font-size:31.41499329px;font-family:'Roboto Mono';-inkscape-font-specification:'Roboto Mono Bold';fill:#ffffff;fill-opacity:1;stroke-width:0.24935651"
       id="path815" />
  </g>

 </g><g transform="translate(238.6, 49.5) rotate(45) "> <g
     aria-label="R"
     transform="scale(0.94374805,1.0596048)"
     style="font-style:normal;font-weight:normal;font-size:10.18946171px;line-height:1.25;font-family:sans-serif;letter-spacing:0px;word-spacing:0px;fill:#ffffff;fill-opacity:1;stroke:none;stroke-width:0.25473648"
     id="text826">
    <path
       d="m 8.6500265,14.990609 4.3250045,8.68135 h 4.372016 v -0.203714 l -4.889136,-9.480536 q 0.940219,-0.423098 1.692393,-1.002899 0.767845,-0.579802 1.331976,-1.363317 0.532791,-0.752175 0.830527,-1.7237339 0.297735,-0.971559 0.297735,-2.1625024 0,-1.7080634 -0.595471,-2.9930286 Q 15.435269,3.4572629 14.354018,2.6110663 13.257097,1.7491995 11.752747,1.3104309 10.248398,0.85599196 8.4149719,0.85599196 H 0.95590577 V 23.671959 H 5.0458559 v -8.68135 z M 5.0458559,11.652833 V 4.178097 h 3.369116 q 0.9402184,0 1.6767231,0.2350546 0.736504,0.2350546 1.269295,0.6738232 0.564131,0.4701093 0.846196,1.2066137 0.297736,0.7208341 0.297736,1.6610525 0,0.814856 -0.250725,1.4730089 -0.235054,0.6424821 -0.689493,1.0969211 -0.532791,0.548461 -1.331976,0.846197 -0.7835158,0.282065 -1.7864155,0.282065 z"
       style="font-style:normal;font-variant:normal;font-weight:bold;font-stretch:normal;font-size:32.0927887px;font-family:'Roboto Mono';-inkscape-font-specification:'Roboto Mono Bold';fill:#ffffff;fill-opacity:1;stroke-width:0.25473648"
       id="path815" />
  </g>

 </g><g transform="translate(254.8, 66.5) rotate(55) "> <g
     aria-label="I"
     transform="scale(1.0380132,0.96337888)"
     style="font-style:normal;font-weight:normal;font-size:11.20722389px;line-height:1.25;font-family:sans-serif;letter-spacing:0px;word-spacing:0px;fill:#ffffff;fill-opacity:1;stroke:none;stroke-width:0.28018054"
     id="text826">
    <path
       d="M 0.84366954,0.94149479 V 4.6126596 H 5.9623915 V 22.382476 H 0.84366954 v 3.65393 H 15.493858 v -3.65393 H 10.237252 V 4.6126596 h 5.256606 V 0.94149479 Z"
       style="font-style:normal;font-variant:normal;font-weight:bold;font-stretch:normal;font-size:35.29833603px;font-family:'Roboto Mono';-inkscape-font-specification:'Roboto Mono Bold';fill:#ffffff;fill-opacity:1;stroke-width:0.28018054"
       id="path815"
       inkscape:connector-curvature="0"
       sodipodi:nodetypes="ccccccccccccc" />
  </g>

 </g><g transform="translate(267.8, 85.5) rotate(65) "> <g
     aria-label="N"
     transform="scale(0.9730088,1.0277399)"
     style="font-style:normal;font-weight:normal;font-size:10.50538445px;line-height:1.25;font-family:sans-serif;letter-spacing:0px;word-spacing:0px;fill:#ffffff;fill-opacity:1;stroke:none;stroke-width:0.26263455"
     id="text826">
    <path
       d="M 16.544306,24.405903 V 0.88253215 H 12.311392 L 12.279079,16.50554 5.2349931,0.88253215 H 0.98592273 V 24.405903 H 5.2349931 L 5.2511493,8.7344265 12.327548,24.405903 Z"
       style="font-style:normal;font-variant:normal;font-weight:bold;font-stretch:normal;font-size:33.08781815px;font-family:'Roboto Mono';-inkscape-font-specification:'Roboto Mono Bold';fill:#ffffff;fill-opacity:1;stroke-width:0.26263455"
       id="path815" />
    <path
       id="path818"
       style="font-style:normal;font-variant:normal;font-weight:bold;font-stretch:normal;font-size:33.08781815px;font-family:'Roboto Mono';-inkscape-font-specification:'Roboto Mono Bold';fill:#ffffff;fill-opacity:1;stroke-width:0.26263455"
       d="M 16.544306,24.405903 V 0.88253215 H 12.311392 L 12.279079,16.50554 5.2349931,0.88253215 H 0.98592273 V 24.405903 H 5.2349931 L 5.2511493,8.7344265 12.327548,24.405903 Z" />
  </g>

 </g><g transform="translate(282.6, 130) rotate(85) "> <g
     aria-label="G"
     transform="scale(0.94225693,1.0612817)"
     style="font-style:normal;font-weight:normal;font-size:9.97426224px;line-height:1.25;font-family:sans-serif;letter-spacing:0px;word-spacing:0px;fill:#ffffff;fill-opacity:1;stroke:none;stroke-width:0.24935651"
     id="text826">
    <path
       d="m 17.011825,20.763421 -0.03068,-8.682073 H 9.1580772 v 3.052531 h 3.8655168 l -0.01534,4.249 q -0.214751,0.260769 -0.582896,0.47552 -0.368144,0.199412 -0.828325,0.337466 -0.47552,0.153394 -0.997058,0.23009 -0.521538,0.0767 -1.0430757,0.06136 Q 8.6978966,20.471973 8.0076257,20.211204 7.3326942,19.935096 6.8111563,19.428897 6.4583512,19.076092 6.1822428,18.615912 5.9061345,18.155731 5.7067229,17.618854 5.4152752,16.836547 5.2618817,15.870168 5.1084882,14.888449 5.0931488,13.753337 v -2.975834 q 0,-0.9357006 0.1073755,-1.779365 Q 5.3232391,8.1544736 5.5533294,7.4488634 5.8140984,6.5745204 6.2282609,5.8995889 6.6424234,5.2246574 7.1793007,4.7951555 7.6088026,4.4423504 8.1303406,4.2582782 8.6672179,4.0588666 9.2654526,4.0588666 q 0.9510394,0 1.6259714,0.260769 0.690271,0.2454296 1.150451,0.7516282 0.414163,0.4601806 0.659593,1.1351121 0.260769,0.6595921 0.383483,1.5032565 h 3.896196 Q 16.827753,6.1143398 16.260197,4.8258342 15.707981,3.5373286 14.741601,2.6323068 13.775222,1.7426244 12.379341,1.2671045 10.998799,0.79158458 9.1887559,0.79158458 q -1.2731663,0 -2.392939,0.35280512 Q 5.6913836,1.4971948 4.7710224,2.1721263 3.9426974,2.7857004 3.2831053,3.6140254 2.6235131,4.4423504 2.1326539,5.470087 1.6264552,6.6051991 1.3503469,7.9550621 1.0742386,9.2895857 1.0742386,10.808182 v 2.945155 q 0,1.579953 0.2761083,2.975835 0.2914477,1.380541 0.8590037,2.515653 0.4908593,1.043076 1.2118088,1.886741 0.7209496,0.828325 1.6259714,1.41122 0.9050218,0.567556 1.9941158,0.889682 1.1044333,0.306787 2.3622602,0.306787 1.3958812,0 2.6230292,-0.276108 1.242488,-0.260769 2.254885,-0.736289 0.905022,-0.414162 1.595292,-0.920361 0.690271,-0.521538 1.135112,-1.043076 z"
       style="font-style:normal;font-variant:normal;font-weight:bold;font-stretch:normal;font-size:31.41499329px;font-family:'Roboto Mono';-inkscape-font-specification:'Roboto Mono Bold';fill:#ffffff;fill-opacity:1;stroke-width:0.24935651"
       id="path815" />
  </g>

 </g><g transform="translate(283.9, 153.5) rotate(95) "> <g
     aria-label="R"
     transform="scale(0.94374805,1.0596048)"
     style="font-style:normal;font-weight:normal;font-size:10.18946171px;line-height:1.25;font-family:sans-serif;letter-spacing:0px;word-spacing:0px;fill:#ffffff;fill-opacity:1;stroke:none;stroke-width:0.25473648"
     id="text826">
    <path
       d="m 8.6500265,14.990609 4.3250045,8.68135 h 4.372016 v -0.203714 l -4.889136,-9.480536 q 0.940219,-0.423098 1.692393,-1.002899 0.767845,-0.579802 1.331976,-1.363317 0.532791,-0.752175 0.830527,-1.7237339 0.297735,-0.971559 0.297735,-2.1625024 0,-1.7080634 -0.595471,-2.9930286 Q 15.435269,3.4572629 14.354018,2.6110663 13.257097,1.7491995 11.752747,1.3104309 10.248398,0.85599196 8.4149719,0.85599196 H 0.95590577 V 23.671959 H 5.0458559 v -8.68135 z M 5.0458559,11.652833 V 4.178097 h 3.369116 q 0.9402184,0 1.6767231,0.2350546 0.736504,0.2350546 1.269295,0.6738232 0.564131,0.4701093 0.846196,1.2066137 0.297736,0.7208341 0.297736,1.6610525 0,0.814856 -0.250725,1.4730089 -0.235054,0.6424821 -0.689493,1.0969211 -0.532791,0.548461 -1.331976,0.846197 -0.7835158,0.282065 -1.7864155,0.282065 z"
       style="font-style:normal;font-variant:normal;font-weight:bold;font-stretch:normal;font-size:32.0927887px;font-family:'Roboto Mono';-inkscape-font-specification:'Roboto Mono Bold';fill:#ffffff;fill-opacity:1;stroke-width:0.25473648"
       id="path815" />
  </g>

 </g><g transform="translate(281.6, 176.7) rotate(105) "> <g
     aria-label="I"
     transform="scale(1.0380132,0.96337888)"
     style="font-style:normal;font-weight:normal;font-size:11.20722389px;line-height:1.25;font-family:sans-serif;letter-spacing:0px;word-spacing:0px;fill:#ffffff;fill-opacity:1;stroke:none;stroke-width:0.28018054"
     id="text826">
    <path
       d="M 0.84366954,0.94149479 V 4.6126596 H 5.9623915 V 22.382476 H 0.84366954 v 3.65393 H 15.493858 v -3.65393 H 10.237252 V 4.6126596 h 5.256606 V 0.94149479 Z"
       style="font-style:normal;font-variant:normal;font-weight:bold;font-stretch:normal;font-size:35.29833603px;font-family:'Roboto Mono';-inkscape-font-specification:'Roboto Mono Bold';fill:#ffffff;fill-opacity:1;stroke-width:0.28018054"
       id="path815"
       inkscape:connector-curvature="0"
       sodipodi:nodetypes="ccccccccccccc" />
  </g>

 </g><g transform="translate(274.7, 199) rotate(115) "> <g
     aria-label="N"
     transform="scale(0.9730088,1.0277399)"
     style="font-style:normal;font-weight:normal;font-size:10.50538445px;line-height:1.25;font-family:sans-serif;letter-spacing:0px;word-spacing:0px;fill:#ffffff;fill-opacity:1;stroke:none;stroke-width:0.26263455"
     id="text826">
    <path
       d="M 16.544306,24.405903 V 0.88253215 H 12.311392 L 12.279079,16.50554 5.2349931,0.88253215 H 0.98592273 V 24.405903 H 5.2349931 L 5.2511493,8.7344265 12.327548,24.405903 Z"
       style="font-style:normal;font-variant:normal;font-weight:bold;font-stretch:normal;font-size:33.08781815px;font-family:'Roboto Mono';-inkscape-font-specification:'Roboto Mono Bold';fill:#ffffff;fill-opacity:1;stroke-width:0.26263455"
       id="path815" />
    <path
       id="path818"
       style="font-style:normal;font-variant:normal;font-weight:bold;font-stretch:normal;font-size:33.08781815px;font-family:'Roboto Mono';-inkscape-font-specification:'Roboto Mono Bold';fill:#ffffff;fill-opacity:1;stroke-width:0.26263455"
       d="M 16.544306,24.405903 V 0.88253215 H 12.311392 L 12.279079,16.50554 5.2349931,0.88253215 H 0.98592273 V 24.405903 H 5.2349931 L 5.2511493,8.7344265 12.327548,24.405903 Z" />
  </g>

 </g><g transform="translate(250.6, 238.8) rotate(135) "> <g
     aria-label="G"
     transform="scale(0.94225693,1.0612817)"
     style="font-style:normal;font-weight:normal;font-size:9.97426224px;line-height:1.25;font-family:sans-serif;letter-spacing:0px;word-spacing:0px;fill:#ffffff;fill-opacity:1;stroke:none;stroke-width:0.24935651"
     id="text826">
    <path
       d="m 17.011825,20.763421 -0.03068,-8.682073 H 9.1580772 v 3.052531 h 3.8655168 l -0.01534,4.249 q -0.214751,0.260769 -0.582896,0.47552 -0.368144,0.199412 -0.828325,0.337466 -0.47552,0.153394 -0.997058,0.23009 -0.521538,0.0767 -1.0430757,0.06136 Q 8.6978966,20.471973 8.0076257,20.211204 7.3326942,19.935096 6.8111563,19.428897 6.4583512,19.076092 6.1822428,18.615912 5.9061345,18.155731 5.7067229,17.618854 5.4152752,16.836547 5.2618817,15.870168 5.1084882,14.888449 5.0931488,13.753337 v -2.975834 q 0,-0.9357006 0.1073755,-1.779365 Q 5.3232391,8.1544736 5.5533294,7.4488634 5.8140984,6.5745204 6.2282609,5.8995889 6.6424234,5.2246574 7.1793007,4.7951555 7.6088026,4.4423504 8.1303406,4.2582782 8.6672179,4.0588666 9.2654526,4.0588666 q 0.9510394,0 1.6259714,0.260769 0.690271,0.2454296 1.150451,0.7516282 0.414163,0.4601806 0.659593,1.1351121 0.260769,0.6595921 0.383483,1.5032565 h 3.896196 Q 16.827753,6.1143398 16.260197,4.8258342 15.707981,3.5373286 14.741601,2.6323068 13.775222,1.7426244 12.379341,1.2671045 10.998799,0.79158458 9.1887559,0.79158458 q -1.2731663,0 -2.392939,0.35280512 Q 5.6913836,1.4971948 4.7710224,2.1721263 3.9426974,2.7857004 3.2831053,3.6140254 2.6235131,4.4423504 2.1326539,5.470087 1.6264552,6.6051991 1.3503469,7.9550621 1.0742386,9.2895857 1.0742386,10.808182 v 2.945155 q 0,1.579953 0.2761083,2.975835 0.2914477,1.380541 0.8590037,2.515653 0.4908593,1.043076 1.2118088,1.886741 0.7209496,0.828325 1.6259714,1.41122 0.9050218,0.567556 1.9941158,0.889682 1.1044333,0.306787 2.3622602,0.306787 1.3958812,0 2.6230292,-0.276108 1.242488,-0.260769 2.254885,-0.736289 0.905022,-0.414162 1.595292,-0.920361 0.690271,-0.521538 1.135112,-1.043076 z"
       style="font-style:normal;font-variant:normal;font-weight:bold;font-stretch:normal;font-size:31.41499329px;font-family:'Roboto Mono';-inkscape-font-specification:'Roboto Mono Bold';fill:#ffffff;fill-opacity:1;stroke-width:0.24935651"
       id="path815" />
  </g>

 </g><g transform="translate(234, 254.7) rotate(145) "> <g
     aria-label="R"
     transform="scale(0.94374805,1.0596048)"
     style="font-style:normal;font-weight:normal;font-size:10.18946171px;line-height:1.25;font-family:sans-serif;letter-spacing:0px;word-spacing:0px;fill:#ffffff;fill-opacity:1;stroke:none;stroke-width:0.25473648"
     id="text826">
    <path
       d="m 8.6500265,14.990609 4.3250045,8.68135 h 4.372016 v -0.203714 l -4.889136,-9.480536 q 0.940219,-0.423098 1.692393,-1.002899 0.767845,-0.579802 1.331976,-1.363317 0.532791,-0.752175 0.830527,-1.7237339 0.297735,-0.971559 0.297735,-2.1625024 0,-1.7080634 -0.595471,-2.9930286 Q 15.435269,3.4572629 14.354018,2.6110663 13.257097,1.7491995 11.752747,1.3104309 10.248398,0.85599196 8.4149719,0.85599196 H 0.95590577 V 23.671959 H 5.0458559 v -8.68135 z M 5.0458559,11.652833 V 4.178097 h 3.369116 q 0.9402184,0 1.6767231,0.2350546 0.736504,0.2350546 1.269295,0.6738232 0.564131,0.4701093 0.846196,1.2066137 0.297736,0.7208341 0.297736,1.6610525 0,0.814856 -0.250725,1.4730089 -0.235054,0.6424821 -0.689493,1.0969211 -0.532791,0.548461 -1.331976,0.846197 -0.7835158,0.282065 -1.7864155,0.282065 z"
       style="font-style:normal;font-variant:normal;font-weight:bold;font-stretch:normal;font-size:32.0927887px;font-family:'Roboto Mono';-inkscape-font-specification:'Roboto Mono Bold';fill:#ffffff;fill-opacity:1;stroke-width:0.25473648"
       id="path815" />
  </g>

 </g><g transform="translate(214.3, 267.7) rotate(155) "> <g
     aria-label="I"
     transform="scale(1.0380132,0.96337888)"
     style="font-style:normal;font-weight:normal;font-size:11.20722389px;line-height:1.25;font-family:sans-serif;letter-spacing:0px;word-spacing:0px;fill:#ffffff;fill-opacity:1;stroke:none;stroke-width:0.28018054"
     id="text826">
    <path
       d="M 0.84366954,0.94149479 V 4.6126596 H 5.9623915 V 22.382476 H 0.84366954 v 3.65393 H 15.493858 v -3.65393 H 10.237252 V 4.6126596 h 5.256606 V 0.94149479 Z"
       style="font-style:normal;font-variant:normal;font-weight:bold;font-stretch:normal;font-size:35.29833603px;font-family:'Roboto Mono';-inkscape-font-specification:'Roboto Mono Bold';fill:#ffffff;fill-opacity:1;stroke-width:0.28018054"
       id="path815"
       inkscape:connector-curvature="0"
       sodipodi:nodetypes="ccccccccccccc" />
  </g>

 </g><g transform="translate(193.2, 277) rotate(165) "> <g
     aria-label="N"
     transform="scale(0.9730088,1.0277399)"
     style="font-style:normal;font-weight:normal;font-size:10.50538445px;line-height:1.25;font-family:sans-serif;letter-spacing:0px;word-spacing:0px;fill:#ffffff;fill-opacity:1;stroke:none;stroke-width:0.26263455"
     id="text826">
    <path
       d="M 16.544306,24.405903 V 0.88253215 H 12.311392 L 12.279079,16.50554 5.2349931,0.88253215 H 0.98592273 V 24.405903 H 5.2349931 L 5.2511493,8.7344265 12.327548,24.405903 Z"
       style="font-style:normal;font-variant:normal;font-weight:bold;font-stretch:normal;font-size:33.08781815px;font-family:'Roboto Mono';-inkscape-font-specification:'Roboto Mono Bold';fill:#ffffff;fill-opacity:1;stroke-width:0.26263455"
       id="path815" />
    <path
       id="path818"
       style="font-style:normal;font-variant:normal;font-weight:bold;font-stretch:normal;font-size:33.08781815px;font-family:'Roboto Mono';-inkscape-font-specification:'Roboto Mono Bold';fill:#ffffff;fill-opacity:1;stroke-width:0.26263455"
       d="M 16.544306,24.405903 V 0.88253215 H 12.311392 L 12.279079,16.50554 5.2349931,0.88253215 H 0.98592273 V 24.405903 H 5.2349931 L 5.2511493,8.7344265 12.327548,24.405903 Z" />
  </g>

 </g>   </svg>
